<svg width="60" height="60" viewBox="0 0 60 60" fill="none" xmlns="http://www.w3.org/2000/svg">
<g clip-path="url(#clip0)">
<path d="M49.1909 30.4534V24.3094C49.1909 17.2386 44.7027 11.1967 38.4255 8.88223C38.4332 8.73457 38.4384 8.58668 38.4384 8.43867C38.4385 3.78551 34.6529 0 29.9998 0C28.6643 0 27.3345 0.320039 26.1545 0.92543C25.7226 1.14703 25.5521 1.67672 25.7737 2.10867C25.9953 2.54051 26.525 2.71113 26.957 2.48953C27.9031 2.00402 28.9269 1.75781 29.9998 1.75781C33.6534 1.75781 36.6296 4.70613 36.6784 8.3482C35.4207 8.03906 34.1072 7.87383 32.7554 7.87383H27.7445C26.2115 7.87383 24.7272 8.08547 23.3185 8.4798C23.3184 8.46609 23.3177 8.45238 23.3177 8.43867C23.3177 7.01531 23.759 5.65723 24.5941 4.51137C24.8799 4.11902 24.7937 3.5693 24.4013 3.28348C24.0089 2.99754 23.4593 3.08402 23.1733 3.47625C22.1178 4.92492 21.5598 6.6409 21.5598 8.43879C21.5598 8.6502 21.5684 8.86195 21.5841 9.07277C15.5643 11.5151 11.3076 17.4241 11.3076 24.3095V29.9797C11.1839 30.0804 11.0642 30.1877 10.9498 30.3021C10.0773 31.1747 9.59668 32.3347 9.59668 33.5686C9.59668 36.1165 11.6695 38.1893 14.2174 38.1893H14.3143C15.167 42.095 17.4454 45.4734 20.5754 47.7503C17.8198 50.3004 16.2611 53.8438 16.2611 57.6424V59.1213C16.2611 59.6067 16.6546 60.0002 17.14 60.0002H42.8592C43.3447 60.0002 43.7381 59.6067 43.7381 59.1213V57.6424C43.7381 53.8461 42.1813 50.3053 39.4291 47.756C40.1046 47.2637 40.7471 46.7161 41.3496 46.1139C41.5854 45.8781 41.7976 45.6523 41.9988 45.4234C42.3192 45.0588 42.2834 44.5035 41.9188 44.1831C41.5541 43.8626 40.9987 43.8986 40.6783 44.2631C40.5023 44.4634 40.3153 44.6623 40.1067 44.871C37.4059 47.5706 33.8159 49.0575 29.9983 49.0575C22.1159 49.057 15.703 42.6445 15.703 34.7625V32.07L16.4231 32.8482C16.6082 36.1934 19.3875 38.8581 22.778 38.8581C26.1214 38.8581 28.869 36.2666 29.1225 32.9872C29.6738 32.709 30.326 32.709 30.8773 32.9872C31.1308 36.2666 33.8784 38.8581 37.2218 38.8581C40.6123 38.8581 43.3916 36.1932 43.5767 32.8481L44.2945 32.0723V34.7624C44.2945 37.1368 43.7004 39.4882 42.5761 41.5623C42.3447 41.9891 42.5032 42.5225 42.93 42.7539C43.3571 42.9852 43.8902 42.8268 44.1215 42.4C44.8377 41.0788 45.3618 39.6577 45.682 38.1889H45.7821C47.015 38.1889 48.1754 37.7086 49.0496 36.8359C49.9223 35.9633 50.4029 34.8028 50.4029 33.5682C50.4028 32.3692 49.9432 31.2755 49.1909 30.4534ZM18.0192 57.6422C18.0192 54.1866 19.5031 50.9742 22.1095 48.7384C24.2014 49.9238 26.5838 50.6534 29.1214 50.7906V58.2422H18.0191V57.6422H18.0192ZM41.9805 57.6422V58.2422H30.8793V50.7905C33.3747 50.6564 35.7643 49.9545 37.8973 48.7453C40.4994 50.9803 41.9805 54.1896 41.9805 57.6422ZM13.0657 24.3094C13.0657 16.2161 19.6505 9.63164 27.7446 9.63164H32.7555C40.8488 9.63164 47.4332 16.2161 47.4332 24.3094V29.2549C47.0001 29.0886 46.5363 28.9855 46.0523 28.9574V26.1797C46.0523 25.3563 45.9876 24.5214 45.8602 23.698C45.793 23.2639 45.4135 22.946 44.9754 22.9536C44.9139 22.9547 44.8514 22.9559 44.7877 22.9559C41.6673 22.9559 38.8367 20.9926 37.7442 18.0707C37.6293 17.7636 37.3532 17.546 37.0279 17.5061C36.7024 17.4663 36.3819 17.6107 36.1965 17.8808C34.7934 19.9234 32.4766 21.1429 29.9987 21.1429C27.5226 21.1429 25.2061 19.9233 23.8019 17.8806C23.6162 17.6105 23.2958 17.4661 22.9705 17.5061C22.6452 17.546 22.3692 17.7636 22.2543 18.0705C21.1618 20.9925 18.3311 22.9557 15.2108 22.9557C15.1462 22.9557 15.0838 22.9546 15.0207 22.9535C14.5852 22.9466 14.2043 23.2638 14.137 23.698C14.0097 24.5217 13.9452 25.3567 13.9452 26.1797V28.9575C13.6455 28.9748 13.3514 29.0203 13.0657 29.0932V24.3094ZM11.3547 33.5684C11.3547 32.8041 11.6525 32.0855 12.193 31.5449C12.6689 31.069 13.283 30.7816 13.9452 30.7196V34.7625C13.9452 35.3236 13.9743 35.878 14.0308 36.4245C12.539 36.3279 11.3547 35.0842 11.3547 33.5684ZM22.778 37.1004C20.2373 37.1004 18.1704 35.0334 18.1704 32.4928C18.1704 29.9522 20.2373 27.8852 22.778 27.8852C25.3187 27.8852 27.3856 29.9522 27.3856 32.4928C27.3856 35.0334 25.3187 37.1004 22.778 37.1004ZM37.2216 37.1004C34.6809 37.1004 32.6141 35.0334 32.6141 32.4928C32.6141 29.9522 34.681 27.8852 37.2216 27.8852C39.7623 27.8852 41.8292 29.9522 41.8292 32.4928C41.8292 35.0334 39.7623 37.1004 37.2216 37.1004ZM43.2896 30.5701C42.4725 27.9971 40.0616 26.1273 37.2216 26.1273C34.1693 26.1273 31.6128 28.2873 30.9979 31.1589C30.3452 30.9764 29.6545 30.9764 29.0018 31.1589C28.3869 28.2873 25.8304 26.1273 22.778 26.1273C19.938 26.1273 17.5271 27.9971 16.71 30.5701L15.703 29.4816V26.1797C15.703 25.6881 15.7289 25.1914 15.7802 24.696C18.9112 24.5012 21.7408 22.7123 23.2777 20.0168C25.0148 21.8435 27.4374 22.9008 29.9988 22.9008C32.5614 22.9008 34.9847 21.8435 36.721 20.017C38.2578 22.7119 41.0871 24.5006 44.2173 24.6959C44.2686 25.1912 44.2945 25.6879 44.2945 26.1797V29.4841L43.2896 30.5701ZM47.8072 35.5924C47.3086 36.0901 46.6597 36.3814 45.9641 36.4249C46.0215 35.8736 46.0523 35.3187 46.0523 34.7625V30.7198C47.5046 30.8564 48.6451 32.0815 48.6451 33.5684C48.645 34.3334 48.3472 35.0524 47.8072 35.5924Z" fill="#AA0630"/>
<path d="M25.6012 39.8448C25.2579 40.188 25.2579 40.7444 25.6012 41.0877C26.8138 42.3003 28.4068 42.9067 29.9998 42.9067C31.5929 42.9067 33.1857 42.3003 34.3985 41.0877C34.7417 40.7444 34.7417 40.188 34.3985 39.8448C34.0551 39.5016 33.4987 39.5016 33.1554 39.8448C31.4153 41.5848 28.5843 41.5848 26.8443 39.8448C26.5008 39.5014 25.9443 39.5014 25.6012 39.8448Z" fill="#AA0630"/>
<path d="M31.3636 38.5827C31.8491 38.5827 32.2425 38.1892 32.2425 37.7038C32.2425 37.2184 31.8491 36.8249 31.3636 36.8249H28.6357C28.1504 36.8249 27.7568 37.2184 27.7568 37.7038C27.7568 38.1892 28.1504 38.5827 28.6357 38.5827H31.3636Z" fill="#AA0630"/>
<path d="M36.3593 24.0427L34.138 23.9258C33.6551 23.9001 33.2396 24.2724 33.2141 24.7573C33.1886 25.242 33.5609 25.6557 34.0456 25.6812L36.2669 25.7982C36.2827 25.799 36.2983 25.7993 36.3139 25.7993C36.778 25.7993 37.1661 25.4356 37.1907 24.9666C37.2163 24.4818 36.844 24.0683 36.3593 24.0427Z" fill="#AA0630"/>
<path d="M25.8617 23.9257L23.6404 24.0426C23.1556 24.0682 22.7834 24.4819 22.8088 24.9666C22.8336 25.4355 23.2216 25.7993 23.6858 25.7993C23.7013 25.7993 23.717 25.7988 23.7326 25.7981L25.9539 25.6812C26.4387 25.6556 26.8109 25.2419 26.7855 24.7573C26.7601 24.2725 26.3454 23.9013 25.8617 23.9257Z" fill="#AA0630"/>
<path d="M24.7301 30.9294C23.868 30.9294 23.1665 31.6309 23.1665 32.4932C23.1665 33.3555 23.868 34.0569 24.7301 34.0569C25.5924 34.0569 26.2939 33.3555 26.2939 32.4932C26.2939 31.6309 25.5924 30.9294 24.7301 30.9294Z" fill="#AA0630"/>
<path d="M35.2532 34.0568C36.1168 34.0568 36.817 33.3567 36.817 32.4931C36.817 31.6294 36.1168 30.9293 35.2532 30.9293C34.3896 30.9293 33.6895 31.6294 33.6895 32.4931C33.6895 33.3567 34.3896 34.0568 35.2532 34.0568Z" fill="#AA0630"/>
<path d="M34.0439 57.3647C35.4632 57.3647 36.618 56.2099 36.618 54.7905C36.618 53.3711 35.4632 52.2164 34.0439 52.2164C32.6245 52.2164 31.4697 53.3711 31.4697 54.7905C31.4697 56.2099 32.6244 57.3647 34.0439 57.3647ZM34.0439 53.9743C34.494 53.9743 34.8602 54.3405 34.8602 54.7906C34.8602 55.2407 34.494 55.607 34.0439 55.607C33.5938 55.607 33.2275 55.2407 33.2275 54.7906C33.2275 54.3405 33.5938 53.9743 34.0439 53.9743Z" fill="#AA0630"/>
<path d="M25.9501 52.2165C24.5307 52.2165 23.376 53.3713 23.376 54.7906C23.376 56.21 24.5307 57.3648 25.9501 57.3648C27.3695 57.3648 28.5241 56.21 28.5241 54.7906C28.5241 53.3713 27.3695 52.2165 25.9501 52.2165ZM25.9501 55.6068C25.5 55.6068 25.1338 55.2406 25.1338 54.7905C25.1338 54.3404 25.5 53.9742 25.9501 53.9742C26.4002 53.9742 26.7663 54.3404 26.7663 54.7905C26.7663 55.2406 26.4002 55.6068 25.9501 55.6068Z" fill="#AA0630"/>
</g>
<defs>
<clipPath id="clip0">
<rect width="60" height="60" fill="white"/>
</clipPath>
</defs>
</svg>
