<svg width="60" height="60" viewBox="0 0 60 60" fill="none" xmlns="http://www.w3.org/2000/svg">
<path d="M46.0845 35.8984C45.9754 35.3867 45.472 35.0603 44.9606 35.1693C44.158 35.3403 43.3215 35.4994 42.4746 35.6418C38.5713 36.2984 34.3742 36.6312 30.0001 36.6312C29.4768 36.6312 29.0527 37.0554 29.0527 37.5786C29.0527 38.1018 29.477 38.5259 30.0001 38.5259C34.4791 38.5259 38.7818 38.1841 42.7887 37.5102C43.6625 37.3633 44.5259 37.1991 45.3554 37.0224C45.8671 36.9134 46.1935 36.4101 46.0845 35.8984Z" fill="#AA0630"/>
<path d="M26.2533 36.547C25.418 36.5092 24.5781 36.4578 23.757 36.3945C23.2355 36.3546 22.7799 36.7447 22.7397 37.2664C22.6995 37.7881 23.0898 38.2436 23.6115 38.2837C24.4526 38.3485 25.3125 38.401 26.1676 38.4397C26.1823 38.4403 26.1968 38.4408 26.2113 38.4408C26.7149 38.4408 27.134 38.0444 27.1569 37.5363C27.1804 37.0136 26.7759 36.5707 26.2533 36.547Z" fill="#AA0630"/>
<path d="M16.2818 35.4193C15.8634 35.34 15.4456 35.2559 15.0396 35.1694C14.5274 35.0597 14.0245 35.3867 13.9156 35.8984C13.8065 36.4102 14.1328 36.9135 14.6446 37.0225C15.0645 37.112 15.4964 37.199 15.9287 37.281C15.9885 37.2922 16.0478 37.2977 16.1065 37.2977C16.5525 37.2977 16.95 36.9812 17.0361 36.5269C17.1336 36.0128 16.7959 35.5171 16.2818 35.4193Z" fill="#AA0630"/>
<path d="M50.9831 19.4791C49.8691 18.6323 48.6677 18.0567 47.5216 17.8142C48.6521 15.571 48.6033 13.3807 47.2984 12.076C47.0355 11.8132 46.62 11.4972 46.0758 11.3976C45.9762 10.8533 45.6602 10.4377 45.3974 10.1749C43.9788 8.75633 41.4308 8.84856 38.9818 10.3302C38.6659 9.90875 38.3154 9.50469 37.9331 9.12242C35.0532 6.24254 31.3262 5.45785 29.4478 7.3359C29.185 7.59875 28.869 8.0143 28.7694 8.55863C28.3507 8.63528 28.0089 8.84012 27.7533 9.05012C24.8842 6.23035 21.2048 5.47379 19.3425 7.3359C19.0796 7.59875 18.7637 8.0143 18.6641 8.55863C18.1199 8.65824 17.7042 8.97418 17.4414 9.23703C16.9016 9.77692 16.5693 10.4948 16.4619 11.3225C15.9338 11.2459 15.3926 11.2058 14.842 11.2058C10.7692 11.2058 7.57887 13.2864 7.57887 15.9426C7.57887 16.3143 7.6493 16.8316 7.96371 17.287C7.6493 17.7423 7.57887 18.2597 7.57887 18.6313C7.57887 18.9279 7.62059 19.2198 7.69957 19.5058C7.33277 19.7402 6.99152 20.0438 6.68098 20.4044C2.31012 22.3563 0 24.7975 0 27.4733C0 34.7669 4.71961 41.5752 12.6555 45.777C12.8888 48.6248 14.8029 51.0325 17.5658 51.8729C21.5174 53.0745 25.7009 53.6838 30 53.6838C34.2991 53.6838 38.4826 53.0744 42.4342 51.8729C45.1971 51.0327 47.1113 48.6249 47.3445 45.7772C55.2804 41.5754 60 34.7669 60 27.4733C60 24.3625 56.7986 21.5271 50.9831 19.4791ZM50.8008 21.8307C51.8585 22.8884 52.6327 24.165 52.9247 25.3333C53.0716 25.9206 53.2229 27.0008 52.5872 27.6364C52.3085 27.915 52.24 28.3238 52.3809 28.6667C52.0277 28.8643 51.6101 29.0781 51.1147 29.3026C51.2783 27.9597 50.9478 26.7811 50.1374 25.9706C49.8745 25.7077 49.459 25.3917 48.9146 25.2922C48.815 24.7479 48.4991 24.3323 48.2362 24.0696C47.4438 23.2772 46.2666 22.9285 44.9218 23.0884C43.9625 23.202 42.93 23.5707 41.9357 24.1543C41.4845 24.4191 41.3332 24.9997 41.5982 25.451C41.8631 25.9023 42.4436 26.0532 42.8948 25.7885C43.6655 25.3361 44.4436 25.053 45.1452 24.9699C45.6805 24.9064 46.4184 24.931 46.8966 25.4094C47.0811 25.5938 47.1307 25.6434 46.8838 26.0074C46.6287 26.3834 46.6766 26.8877 46.9979 27.209C47.3193 27.5304 47.8235 27.5784 48.1997 27.3231C48.5634 27.076 48.6131 27.1257 48.7977 27.3103C49.352 27.8646 49.4079 28.9319 48.9666 30.1509C48.7495 30.2261 48.527 30.3017 48.2925 30.3773C46.1278 31.0753 43.6605 31.6354 40.9922 32.0443C41.0318 31.84 41.0524 31.6333 41.0524 31.425C41.0524 31.0534 40.982 30.536 40.6676 30.0807C40.982 29.6254 41.0524 29.1081 41.0524 28.7363C41.0524 28.0763 40.8553 27.4391 40.4668 26.8421C39.9334 26.0226 39.056 25.3247 37.9295 24.824C36.716 24.2846 35.2843 23.9996 33.7893 23.9996C33.266 23.9996 32.8419 24.4238 32.8419 24.947C32.8419 25.4702 33.2661 25.8943 33.7893 25.8943C35.0212 25.8943 36.1867 26.1229 37.1599 26.5555C37.9399 26.9022 38.5504 27.3711 38.8789 27.8758C39.0639 28.16 39.1577 28.4496 39.1577 28.7365C39.1577 28.9974 39.1577 29.0676 38.7259 29.1504C38.2795 29.2359 37.9569 29.6264 37.9569 30.0808C37.9569 30.5353 38.2796 30.9258 38.7259 31.0113C39.1577 31.094 39.1577 31.1641 39.1577 31.4251C39.1577 31.7318 39.0518 32.0368 38.8447 32.3353C36.0403 32.6679 33.0571 32.8418 29.9999 32.8418C23.1321 32.8418 16.6356 31.9666 11.7073 30.3774C11.4727 30.3017 11.2499 30.2263 11.0327 30.1508C10.5915 28.9323 10.6478 27.8649 11.2023 27.3104C11.3868 27.1259 11.4363 27.0763 11.8004 27.3232C12.1766 27.5783 12.6809 27.5304 13.0022 27.209C13.3235 26.8877 13.3714 26.3833 13.1162 26.0073C12.8693 25.6434 12.9189 25.5938 13.1034 25.4093C13.5959 24.917 14.4942 24.81 15.5684 25.1159C16.7054 25.4397 17.892 26.1784 18.9091 27.1957C19.0022 27.2887 19.1012 27.3931 19.2123 27.5147C19.9035 28.2716 20.4469 29.1119 20.784 29.945C20.9803 30.43 21.5325 30.664 22.0177 30.4678C22.5027 30.2715 22.7367 29.7192 22.5404 29.2341C22.1761 28.334 21.6267 27.4366 20.9398 26.6138C21.4057 24.7462 22.4525 23.4318 23.5187 23.4304C23.5235 23.4304 23.5284 23.4304 23.5335 23.4303C23.785 23.4304 23.8543 23.4368 23.9358 23.8622C24.0213 24.3085 24.4118 24.6311 24.8663 24.6311C25.3207 24.6311 25.7112 24.3084 25.7967 23.8622C25.8795 23.4303 25.9495 23.4303 26.2105 23.4303C27.0429 23.4303 27.9009 24.2483 28.4498 25.5649C28.5321 25.7624 28.6082 25.9732 28.6755 26.1914C28.9222 26.9898 29.0527 27.8913 29.0527 28.7986C29.0527 29.317 29.0112 29.8302 28.9297 30.324C28.8443 30.8401 29.1937 31.3278 29.71 31.4131C29.7622 31.4218 29.8141 31.426 29.8656 31.426C30.3209 31.426 30.7223 31.097 30.7991 30.633C30.8975 30.0376 30.9473 29.4204 30.9473 28.7988C30.9473 27.6887 30.7921 26.6233 30.4857 25.6322C30.4806 25.6156 30.4746 25.5998 30.4695 25.5833C30.9809 25.2221 31.4704 24.8103 31.9301 24.3508C33.7194 22.5615 34.7372 20.3905 34.7357 18.5454C34.8898 18.6368 35.0422 18.7551 35.1923 18.9006C35.9632 19.6466 36.5355 21.0004 36.7234 22.5221C36.7827 23.002 37.1909 23.3537 37.6624 23.3537C37.7011 23.3537 37.7402 23.3512 37.7796 23.3463C38.2989 23.2823 38.6679 22.8093 38.6038 22.2901C38.4015 20.6509 37.8367 19.1765 37.0246 18.1208C37.517 17.4351 38.1011 17.0524 38.6798 17.0524C38.8247 17.0524 38.9107 17.0766 38.9427 17.0993C38.9838 17.1283 39.0482 17.2467 39.0938 17.4843C39.1793 17.9307 39.5699 18.2533 40.0242 18.2533C40.4786 18.2533 40.869 17.9306 40.9547 17.4843C41.0374 17.0525 41.1075 17.0525 41.3685 17.0525C42.2723 17.0525 43.172 17.9757 43.716 19.4621C43.9201 20.0199 44.0633 20.6294 44.1418 21.2737C44.2003 21.7542 44.6089 22.1068 45.0811 22.1068C45.1193 22.1068 45.1577 22.1045 45.1966 22.0998C45.716 22.0366 46.0859 21.5643 46.0227 21.045C45.964 20.5622 45.8743 20.0933 45.7555 19.6427C45.8365 19.6237 45.9207 19.6085 46.009 19.5982C47.3991 19.434 49.2806 20.3104 50.8008 21.8307ZM9.18328 20.8918C9.30551 20.859 9.42762 20.8421 9.54586 20.8421C9.80672 20.8421 9.87691 20.8421 9.95965 21.2739C10.0452 21.7203 10.4358 22.0429 10.8901 22.0429C11.3445 22.0429 11.735 21.7202 11.8206 21.2739C11.9033 20.8421 11.9735 20.8421 12.2345 20.8421C12.4685 20.8421 12.7048 20.9042 12.9368 21.0266C12.937 21.0267 12.9373 21.0268 12.9375 21.0269C13.2548 21.1944 13.5573 21.4677 13.8368 21.8389C14.1514 22.2569 14.7452 22.3409 15.1634 22.0263C15.5815 21.7116 15.6654 21.1177 15.3507 20.6997C15.0582 20.311 14.7373 19.9841 14.3926 19.7199C14.7416 17.476 15.8866 15.7896 17.1248 15.7896C17.3857 15.7896 17.4559 15.7896 17.5386 16.2214C17.6242 16.6678 18.0148 16.9904 18.4691 16.9904C18.9234 16.9904 19.314 16.6677 19.3996 16.2214C19.4823 15.7896 19.5525 15.7896 19.8135 15.7896C20.0619 15.7896 20.3141 15.8607 20.5628 16.0007C21.1591 16.337 21.6981 17.0432 22.0805 17.9894C22.2907 18.5096 22.4461 19.0828 22.5425 19.6933C22.6241 20.2102 23.1105 20.5631 23.6261 20.4813C24.143 20.3997 24.4956 19.9145 24.414 19.3977C24.2952 18.6453 24.101 17.9327 23.8371 17.2795C23.2868 15.9173 22.4762 14.9043 21.4932 14.3503C20.957 14.0481 20.392 13.8948 19.8135 13.8948C19.4418 13.8948 18.9245 13.9652 18.4691 14.2796C18.0138 13.9652 17.4964 13.8948 17.1248 13.8948C14.9991 13.8948 13.2025 15.9704 12.602 18.9691C12.4802 18.9554 12.3577 18.9474 12.2345 18.9474C11.8628 18.9474 11.3455 19.0179 10.8901 19.3323C10.4348 19.0179 9.91746 18.9474 9.54586 18.9474C9.53438 18.9474 9.52277 18.9485 9.51129 18.9486C9.48621 18.8429 9.47344 18.7371 9.47344 18.6317C9.47344 18.3709 9.47344 18.3007 9.90527 18.2179C10.3516 18.1324 10.6743 17.742 10.6743 17.2875C10.6743 16.833 10.352 16.4423 9.90563 16.3568C9.47379 16.274 9.47379 16.2038 9.47379 15.9429C9.47379 14.5986 11.6786 13.1007 14.8423 13.1007C15.6498 13.1007 16.4304 13.1997 17.1623 13.3952C17.1661 13.3963 17.17 13.3967 17.1737 13.3977C17.1984 13.404 17.2235 13.4094 17.2487 13.4137C17.2586 13.4154 17.2683 13.4165 17.2781 13.4179C17.2975 13.4206 17.3169 13.4229 17.3365 13.4244C17.3502 13.4254 17.3639 13.4259 17.3775 13.4263C17.3869 13.4265 17.3959 13.4275 17.4053 13.4275C17.41 13.4275 17.4148 13.4266 17.4195 13.4266C17.4518 13.4263 17.4839 13.4241 17.5155 13.4205C17.5189 13.4202 17.5223 13.4203 17.5257 13.4199C17.5268 13.4198 17.5277 13.4196 17.5288 13.4195C17.5541 13.4162 17.5788 13.4114 17.6036 13.4061C17.6101 13.4047 17.6168 13.4039 17.6232 13.4023C17.6428 13.3977 17.662 13.3917 17.6813 13.3858C17.6925 13.3824 17.704 13.3797 17.715 13.376C17.7195 13.3745 17.7236 13.3725 17.7279 13.3708C17.8301 13.3339 17.923 13.2802 18.0048 13.2134C18.013 13.2068 18.0217 13.2006 18.0298 13.1936C18.0366 13.1877 18.0428 13.181 18.0495 13.1748C18.1283 13.102 18.1954 13.0156 18.2462 12.9174C18.2482 12.9137 18.2505 12.91 18.2525 12.9063C18.2577 12.896 18.2619 12.885 18.2667 12.8744C18.2752 12.856 18.2838 12.8377 18.2911 12.8189C18.2933 12.813 18.295 12.8069 18.2971 12.8011C18.3057 12.7768 18.3139 12.7523 18.3209 12.7272C18.3211 12.7263 18.3214 12.7255 18.3218 12.7245C18.3233 12.719 18.3239 12.7133 18.3253 12.7078C18.3313 12.6839 18.3367 12.6597 18.3409 12.6352C18.3429 12.6235 18.3438 12.6117 18.3454 12.5998C18.3478 12.5811 18.3503 12.5626 18.3516 12.5436C18.3529 12.5257 18.3527 12.5079 18.353 12.4899C18.3531 12.477 18.3537 12.4643 18.3533 12.4514C18.3526 12.4278 18.3504 12.4046 18.348 12.3814C18.3473 12.3745 18.3475 12.3677 18.3465 12.3608C18.2771 11.8149 18.2964 11.0623 18.7814 10.5773C18.9659 10.3929 19.0155 10.3432 19.3795 10.5901C19.7556 10.8452 20.26 10.7974 20.5813 10.4761C20.9026 10.1547 20.9505 9.65047 20.6953 9.2743C20.4484 8.91043 20.498 8.86075 20.6825 8.67617C21.633 7.72567 24.2513 8.22547 26.4882 10.4628C26.6882 10.6626 26.8818 10.8744 27.0635 11.0918C27.0649 11.0934 27.0663 11.0949 27.0677 11.0966C27.2898 11.3625 27.4958 11.6396 27.6798 11.9202C27.9668 12.3576 28.5543 12.4797 28.9916 12.1925C29.4291 11.9055 29.5511 11.3182 29.2639 10.8807C29.1761 10.7466 29.083 10.6139 28.9877 10.482C29.1049 10.3856 29.196 10.3944 29.4846 10.5902C29.8607 10.8453 30.365 10.7975 30.6864 10.4762C31.0077 10.1548 31.0556 9.65059 30.8004 9.27442C30.5535 8.91055 30.603 8.86086 30.7876 8.67629C31.7381 7.72578 34.3563 8.22559 36.5933 10.4628C37.1109 10.9803 37.5577 11.5433 37.9209 12.1359C38.1802 12.5588 38.3899 12.9873 38.5444 13.4094C38.6849 13.7934 39.0477 14.0315 39.4342 14.0315C39.5423 14.0315 39.6521 14.013 39.7597 13.9736C40.2511 13.7939 40.5037 13.2499 40.3239 12.7584C40.2246 12.4871 40.1081 12.215 39.9757 11.9443C41.6232 10.9544 43.2954 10.7533 44.0576 11.5155C44.242 11.7001 44.2917 11.7497 44.0448 12.1135C43.7897 12.4896 43.8375 12.9938 44.1588 13.3153C44.4802 13.6366 44.9846 13.6845 45.3606 13.4294C45.7245 13.1825 45.7741 13.232 45.9587 13.4165C46.7613 14.2191 46.488 16.059 45.3429 17.7943C45.2539 17.8147 45.1663 17.837 45.0806 17.8629C44.1988 16.152 42.8579 15.1584 41.3684 15.1584C40.9965 15.1584 40.4788 15.2288 40.0235 15.5437C39.6555 15.288 39.2036 15.1584 38.6798 15.1584C37.5298 15.1584 36.4467 15.7685 35.6039 16.861C35.1469 16.6078 34.6623 16.4621 34.1658 16.4294C34.0364 16.2247 33.8864 16.0364 33.7164 15.8663C33.4535 15.6035 33.038 15.2874 32.4936 15.1879C32.394 14.6436 32.0781 14.228 31.8152 13.9653C31.2688 13.4188 30.5316 13.077 29.6834 12.9772C28.0763 12.7879 26.157 13.4495 24.4177 14.7931C24.0036 15.1131 23.9273 15.708 24.2471 16.1222C24.5671 16.5361 25.1619 16.6125 25.5762 16.2927C26.9064 15.2649 28.3595 14.7296 29.4615 14.859C29.8884 14.9093 30.2297 15.0595 30.4753 15.3052C30.6599 15.4897 30.7095 15.5393 30.4625 15.9032C30.2074 16.2794 30.2554 16.7836 30.5767 17.1049C30.898 17.4262 31.4023 17.4741 31.7784 17.2189C32.1422 16.972 32.1919 17.0214 32.3764 17.2061C32.5186 17.3483 32.63 17.5259 32.7082 17.7347C33.1357 18.877 32.5454 21.0567 30.5902 23.0118C30.2992 23.3028 29.9946 23.57 29.6797 23.8129C28.8002 22.3698 27.5544 21.5366 26.2105 21.5366C25.8389 21.5366 25.3215 21.607 24.8663 21.9214C24.411 21.607 23.8936 21.5366 23.5219 21.5366C23.5161 21.5366 23.5104 21.5366 23.5045 21.5367C21.7766 21.5458 20.2489 22.9289 19.4251 25.111C18.3786 24.2512 17.2222 23.6178 16.0874 23.2946C14.3324 22.7947 12.7564 23.0775 11.7638 24.0704C11.5009 24.3332 11.1848 24.7488 11.0854 25.2931C10.5411 25.3927 10.1255 25.7087 9.86262 25.9715C9.05203 26.7822 8.72156 27.9608 8.8848 29.3029C8.0182 28.9099 7.38281 28.5484 6.93012 28.2533C6.78047 27.6031 6.70406 26.9178 6.70406 26.2111C6.70371 23.2991 7.96441 21.2198 9.18328 20.8918ZM48.3076 35.3306C48.4328 35.7382 48.8077 36.0002 49.2129 36.0002C49.305 36.0002 49.3986 35.9867 49.4912 35.9583C50.8095 35.5536 52.029 35.1077 53.1161 34.6332C54.8512 33.8756 56.2698 33.042 57.3599 32.1485C55.7861 37.0377 51.7808 41.407 45.9923 44.3441C43.7224 45.4957 41.2437 46.393 38.6245 47.0113C38.1152 47.1314 37.8 47.6417 37.9201 48.1509C38.0229 48.587 38.412 48.8809 38.8413 48.8809C38.9133 48.8809 38.9866 48.8727 39.0598 48.8553C41.2118 48.3474 43.2746 47.6576 45.2175 46.8028C44.7128 48.3419 43.497 49.5695 41.8829 50.0604C38.1103 51.2077 34.1122 51.7893 30 51.7893C25.8878 51.7893 21.8898 51.2076 18.1171 50.0605C16.504 49.5698 15.2885 48.3433 14.7832 46.8054C19.3828 48.8301 24.604 49.8947 29.9999 49.8947C31.2968 49.8947 32.6024 49.8323 33.8802 49.7092C34.401 49.659 34.7827 49.1961 34.7323 48.6752C34.6821 48.1545 34.2207 47.7734 33.6983 47.8231C32.4806 47.9404 31.2362 47.9999 29.9996 47.9999C24.251 47.9999 18.7209 46.7356 14.0073 44.3441C8.21812 41.4068 4.21254 37.0366 2.63918 32.1461C4.41996 33.6085 7.07156 34.9034 10.5076 35.9583C10.6002 35.9866 10.6938 36.0002 10.7859 36.0002C11.1912 36.0002 11.5662 35.7381 11.6912 35.3306C11.8447 34.8304 11.5637 34.3005 11.0636 34.1469C5.32254 32.3845 1.8948 29.8899 1.8948 27.4736C1.8948 26.0608 3.05004 24.6209 5.19961 23.3054C4.94824 24.1985 4.80926 25.1817 4.80926 26.2106C4.80926 26.4017 4.81535 26.5912 4.82473 26.7799C4.63828 26.953 4.52098 27.1993 4.52098 27.4738C4.52098 28.3316 4.92457 29.1325 5.6052 29.6407C5.63402 29.6628 5.66473 29.6857 5.69871 29.7088C5.69883 29.7088 5.69883 29.7089 5.69895 29.7089C7.03137 30.6177 8.85738 31.4495 11.1263 32.1812C16.2375 33.8292 22.9404 34.7369 30.0004 34.7369C33.2616 34.7369 36.4461 34.5429 39.4332 34.1721C39.4399 34.1715 39.4465 34.1704 39.4532 34.1696C42.9251 33.7374 46.1296 33.0664 48.8746 32.1813C51.1436 31.4497 52.9697 30.6179 54.3019 29.709C55.0393 29.2061 55.4796 28.3705 55.4796 27.4739C55.4796 27.0964 55.2584 26.7715 54.9387 26.6192C54.9742 26.0766 54.9172 25.4909 54.7631 24.8742C54.5898 24.181 54.2993 23.479 53.9106 22.7953C56.6155 24.2331 58.1055 25.8652 58.1055 27.474C58.1055 29.3526 56.0644 31.2787 52.3581 32.8971C51.3367 33.3431 50.1851 33.7637 48.9354 34.1472C48.435 34.3003 48.154 34.8303 48.3076 35.3306Z" fill="#AA0630"/>
</svg>
