<svg width="60" height="60" viewBox="0 0 60 60" fill="none" xmlns="http://www.w3.org/2000/svg">
<g clip-path="url(#clip0)">
<path d="M18.2812 38.2031C18.9285 38.2031 19.4531 37.6785 19.4531 37.0312C19.4531 36.384 18.9285 35.8594 18.2812 35.8594C17.634 35.8594 17.1094 36.384 17.1094 37.0312C17.1094 37.6785 17.634 38.2031 18.2812 38.2031Z" fill="#AA0630"/>
<path d="M3.51659 38.2033H4.72256C5.39568 50.1044 15.8557 60.0001 27.6571 60.0001H32.3446C44.1681 60.0001 54.6073 50.0813 55.2792 38.2033H56.4851C58.4236 38.2033 60.0007 36.6262 60.0007 34.6877C60.0007 32.7492 58.4236 31.1721 56.4851 31.1721H54.6101C54.6101 28.0468 52.5543 25.3323 49.6232 24.4444C48.7599 21.511 46.0773 19.4534 42.9735 19.4534H41.7196C41.176 19.4534 40.7039 19.8271 40.5791 20.3562C40.4543 20.8853 40.7095 21.4306 41.1957 21.6736C42.0069 22.079 41.9892 22.7283 41.9062 23.0793C41.7857 23.5906 41.3434 24.141 40.658 24.141H32.3447C31.0758 24.141 29.8442 24.4407 28.7375 24.9852C30.0307 20.9849 31.0089 17.3675 31.2896 16.309L34.1387 13.4607L34.9672 14.2892C35.425 14.7468 36.1668 14.7468 36.6246 14.2892L44.9109 6.00289C46.2814 4.63227 46.2814 2.4022 44.9114 1.03216C43.5382 -0.342909 41.3134 -0.344315 39.9393 1.03146L31.653 9.31776C31.1953 9.77537 31.1953 10.5174 31.653 10.975L32.4812 11.8033L29.6329 14.6508C28.5307 14.9432 24.6434 15.9946 20.4738 17.3602C13.757 19.5599 9.51481 21.5117 7.86516 23.1612C5.73693 25.2895 4.63643 28.2064 4.79088 31.1722H3.51659C1.57808 31.1722 0.000976562 32.7493 0.000976562 34.6878C0.000976562 36.6263 1.57808 38.2033 3.51659 38.2033ZM41.5971 2.68837C42.0538 2.2311 42.7937 2.22853 43.2534 2.68884C43.7101 3.14563 43.7101 3.88883 43.2534 4.34563L35.7958 11.8033L34.1388 10.1465L41.5971 2.68837ZM49.9019 27.0994C51.3298 27.9145 52.2664 29.4497 52.2664 31.1721H48.177C49.1577 30.063 49.784 28.6441 49.9019 27.0994ZM56.4851 33.5158C57.1313 33.5158 57.657 34.0415 57.657 34.6877C57.657 35.3339 57.1313 35.8596 56.4851 35.8596H45.2352V33.5158H56.4851ZM32.3446 26.4846H40.6578C42.3376 26.4846 43.789 25.3056 44.1873 23.6174C44.3224 23.0446 44.3211 22.4814 44.1974 21.9568C46.175 22.4881 47.5788 24.2807 47.5788 26.5666C47.5788 28.7823 46.0017 30.6856 43.8288 31.0925C43.5231 31.1497 43.2526 31.3262 43.0771 31.5829C42.9031 31.8375 42.8363 32.1501 42.8913 32.4533V46.4064C42.8913 47.0526 42.3656 47.5783 41.7194 47.5783C41.0733 47.5783 40.5476 47.0526 40.5476 46.4064V39.3752C40.5476 37.4367 38.9705 35.8596 37.032 35.8596C35.0935 35.8596 33.5163 37.4367 33.5163 39.3752V41.7189C33.5163 42.3651 32.9907 42.8908 32.3445 42.8908C31.6983 42.8908 31.1726 42.3651 31.1726 41.7189V32.344C31.1726 31.6967 30.6478 31.1721 30.0007 31.1721H26.5403C26.7228 30.7117 26.8628 30.3537 27.0857 29.7568C28.0674 27.7677 30.1261 26.4846 32.3446 26.4846ZM24.0114 31.1721H20.1736C22.4 28.2272 25.0898 24.6182 27.3508 21.5722C26.4209 24.6336 25.2478 28.1923 24.0114 31.1721ZM17.232 31.1721H11.5802C13.6765 29.493 19.2071 25.3416 24.6182 21.3206C22.1641 24.6227 19.363 28.3727 17.232 31.1721ZM9.52254 24.8184C11.4941 22.8469 18.6025 20.3454 24.3674 18.588C18.5884 22.8754 10.0755 29.2339 9.10993 30.2005C8.81567 30.4938 8.56688 30.8194 8.36321 31.1722H7.13825C6.9811 28.8228 7.83798 26.5029 9.52254 24.8184ZM3.51659 33.5158H28.829V35.8596H23.5556C22.9085 35.8596 22.3837 36.3842 22.3837 37.0314C22.3837 37.6787 22.9085 38.2033 23.5556 38.2033H28.829V41.7189C28.829 43.6574 30.4061 45.2345 32.3446 45.2345C34.2831 45.2345 35.8602 43.6574 35.8602 41.7189V39.3752C35.8602 38.729 36.3859 38.2033 37.0321 38.2033C37.6782 38.2033 38.2039 38.729 38.2039 39.3752V46.4064C38.2039 48.3449 39.7811 49.922 41.7196 49.922C43.6581 49.922 45.2352 48.3449 45.2352 46.4064V38.2021H52.9315C52.2776 48.6947 42.9391 57.6564 32.3446 57.6564H27.6571C17.0626 57.6564 7.72407 48.6947 7.07017 38.2033H13.0086C13.6557 38.2033 14.1805 37.6787 14.1805 37.0314C14.1805 36.3842 13.6557 35.8596 13.0086 35.8596H3.51659C2.87042 35.8596 2.34472 35.3339 2.34472 34.6877C2.34472 34.0415 2.87042 33.5158 3.51659 33.5158Z" fill="#AA0630"/>
</g>
<defs>
<clipPath id="clip0">
<rect width="60" height="60" fill="white"/>
</clipPath>
</defs>
</svg>
