<svg width="60" height="60" viewBox="0 0 60 60" fill="none" xmlns="http://www.w3.org/2000/svg">
<g clip-path="url(#clip0)">
<path d="M23.4297 28.2244C22.9445 28.2244 22.5508 28.6176 22.5508 29.1033V30.2916C22.5508 30.7769 22.9445 31.1705 23.4297 31.1705C23.9154 31.1705 24.3086 30.7769 24.3086 30.2916V29.1033C24.3086 28.6176 23.9154 28.2244 23.4297 28.2244Z" fill="#AA0630"/>
<path d="M36.5586 31.1705C37.0443 31.1705 37.4375 30.7769 37.4375 30.2916V29.1033C37.4375 28.6176 37.0443 28.2244 36.5586 28.2244C36.0734 28.2244 35.6797 28.6176 35.6797 29.1033V30.2916C35.6797 30.7769 36.0734 31.1705 36.5586 31.1705Z" fill="#AA0630"/>
<path d="M32.2763 30.7873C32.5958 30.4216 32.5588 29.8663 32.193 29.5468C31.8277 29.2272 31.2724 29.2643 30.9529 29.6301C30.7218 29.8947 30.372 30.0462 29.9944 30.0462C29.6167 30.0462 29.267 29.8947 29.0358 29.6301C28.7163 29.2643 28.161 29.2272 27.7957 29.5468C27.43 29.8663 27.3929 30.4216 27.7124 30.7869C28.2773 31.4337 29.1091 31.8045 29.9944 31.8045C30.8797 31.8045 31.7114 31.4337 32.2763 30.7873Z" fill="#AA0630"/>
<path d="M59.6414 23.1262C58.6027 18.988 55.4606 15.8372 51.528 14.6937C52.1551 11.9952 51.3572 9.11131 49.3719 7.12599C47.843 5.59706 45.8101 4.75524 43.6481 4.75524C42.3764 4.75524 41.1377 5.05049 40.0162 5.614C37.9448 2.24853 34.2273 0 29.9939 0C25.7605 0 22.043 2.24853 19.9712 5.614C18.8502 5.05049 17.6114 4.75524 16.3398 4.75524C14.1773 4.75524 12.1448 5.59706 10.6159 7.12599C8.63014 9.11131 7.83272 11.9952 8.45986 14.6937C4.52722 15.8372 1.38514 18.988 0.346472 23.1262C-0.531516 26.6235 0.284674 30.4202 2.50528 33.2574C1.02671 35.6377 0.875188 38.5944 2.14182 41.1336C3.03171 42.918 4.50662 44.2753 6.33446 45.0145C6.30563 48.4583 7.77733 51.8856 10.6448 54.2302C12.7395 55.9432 15.3812 56.8866 18.0829 56.8866C19.7963 56.8866 21.4567 56.5186 22.9686 55.8296C24.3996 58.3299 27.0656 59.901 29.9939 59.901C32.9222 59.901 35.5882 58.3299 37.0187 55.8296C38.5307 56.5186 40.191 56.8866 41.9054 56.8866C44.6066 56.8866 47.2479 55.9432 49.3431 54.2302C52.2105 51.8856 53.6822 48.4583 53.6529 45.0145C55.4812 44.2753 56.9557 42.918 57.846 41.1336C59.1122 38.5944 58.9607 35.6377 57.4821 33.2574C57.7861 32.8692 58.0676 32.4604 58.3249 32.0306C59.9385 29.3353 60.4063 26.173 59.6414 23.1262ZM40.8269 7.17314C41.698 6.73964 42.6602 6.51305 43.6481 6.51305C45.3409 6.51305 46.9321 7.17222 48.1286 8.36927C49.6919 9.93207 50.3154 12.2076 49.8086 14.3307C46.7764 13.9265 43.811 14.87 41.1578 16.2817C41.1459 16.2876 41.1345 16.2931 41.1231 16.2996C41.4906 14.8196 41.7548 13.2898 41.7548 11.7608C41.7548 10.161 41.443 8.62196 40.8269 7.17314ZM29.6767 40.8283C24.0783 40.6278 19.172 35.667 19.172 30.0141C19.172 23.9794 24.4733 18.9381 30.502 19.2045C30.5149 19.2054 30.5277 19.2054 30.541 19.2063C35.9343 19.4691 40.5312 24.0183 40.8017 29.4621C40.8026 29.4753 40.8026 29.4886 40.8035 29.5019C41.0887 35.6556 35.8675 41.0503 29.6767 40.8283ZM29.9939 1.75827C35.39 1.75827 39.997 6.36382 39.997 11.7608C39.997 14.6594 39.0897 17.5584 37.9471 20.1933C37.9393 20.2116 37.9315 20.2294 37.9237 20.2473C36.3472 18.9628 34.5038 18.094 32.5304 17.6912C31.9834 17.5799 31.4295 17.5039 30.8728 17.4655V9.14747C30.8728 8.66224 30.4796 8.26857 29.9939 8.26857C29.5087 8.26857 29.115 8.66224 29.115 9.14747V17.4655C26.5456 17.6422 24.0613 18.6204 22.0641 20.2473C22.0563 20.2294 22.0485 20.2111 22.0408 20.1933C20.8313 17.4046 19.8618 14.3504 20.0033 11.277C20.0042 11.2619 20.0046 11.2463 20.0055 11.2307C20.282 5.96053 24.6564 1.75827 29.9939 1.75827ZM11.8592 8.36927C13.7607 6.46727 16.7518 5.97472 19.161 7.17314C18.5448 8.6215 18.2331 10.161 18.2331 11.7608C18.2331 12.6809 18.3347 13.5988 18.4885 14.5051C18.5869 15.0883 18.7128 15.6884 18.8648 16.2996C18.8534 16.2931 18.8415 16.2876 18.83 16.2817C16.646 15.1217 14.2473 14.2259 11.7448 14.2259C11.2225 14.2259 10.6969 14.2616 10.1792 14.3307C9.67201 12.2076 10.2959 9.93207 11.8592 8.36927ZM2.05164 23.5542C3.13242 19.2485 7.21657 16.0226 11.6569 15.9855C14.278 15.9636 16.7605 17.0718 18.9774 18.3778C19.1843 18.4991 19.3889 18.6236 19.5922 18.7504C19.9204 19.6925 20.2912 20.6204 20.71 21.5258C19.6018 22.7348 18.7554 24.125 18.1974 25.6274C15.2292 24.493 11.9681 23.9474 8.48778 24.0083C8.00209 24.017 7.61574 24.4171 7.62444 24.9027C7.63268 25.388 8.03231 25.7775 8.51845 25.7661C11.8244 25.7089 14.9097 26.2316 17.7021 27.3197C17.6018 27.7812 17.5277 28.2504 17.4796 28.7251C17.4792 28.7278 17.4792 28.7306 17.4787 28.7333C17.2526 31.0954 17.671 33.4949 18.7307 35.6213C18.7069 35.586 18.2848 35.705 18.2253 35.7155C15.8724 36.1225 13.433 36.2731 11.0558 35.9975C4.99002 35.293 0.516302 29.6717 2.05164 23.5542ZM6.49422 43.1597C5.29534 42.5495 4.32809 41.5781 3.71515 40.349C2.79916 38.5129 2.83029 36.3972 3.75314 34.6155C4.91723 35.6986 6.29327 36.534 7.81487 37.0719C8.25341 37.2266 8.70064 37.3557 9.15382 37.4592C9.15886 37.4601 9.15749 37.4747 9.15245 37.4807C8.58071 38.1504 8.06481 38.8773 7.67067 39.6665C7.0971 40.7592 6.69976 41.9343 6.49422 43.1597ZM11.7576 52.8693C9.09752 50.694 7.8492 47.4233 8.13027 44.2341C8.34404 41.807 9.52095 39.5209 11.2417 37.8158C11.2513 37.8066 11.2614 37.797 11.271 37.7874C11.2737 37.7878 11.2769 37.7878 11.2797 37.7883C14.0267 38.0744 16.8717 37.8194 19.5656 37.2486C19.605 37.2404 19.6453 37.233 19.6851 37.2243C20.0197 37.7036 20.385 38.1541 20.775 38.5757C18.2551 40.7949 16.1796 43.6083 14.6017 46.9559C14.3947 47.3949 14.5824 47.9186 15.0219 48.126C15.4558 48.3306 15.9868 48.1401 16.1919 47.7057C17.6929 44.5211 19.6663 41.8606 22.0618 39.7841C23.9899 41.3552 26.3538 42.3243 28.8848 42.5449C29.2075 42.5728 29.532 42.5898 29.8566 42.5934C29.8529 42.6085 29.8493 42.6236 29.8456 42.6388C28.4284 48.4505 24.943 55.1288 18.0834 55.1288C15.7859 55.1288 13.5392 54.3263 11.7576 52.8693ZM29.9939 58.1432C27.7124 58.1432 25.6337 56.9246 24.5099 54.9832C24.639 55.159 27.0963 52.6894 27.1938 52.5704C28.2155 51.3211 29.1846 49.6265 29.9953 47.7341C30.6169 49.182 31.3489 50.5924 32.2658 51.8764C33.1374 53.0977 34.2204 54.1625 35.4784 54.9832C34.3541 56.9246 32.2759 58.1432 29.9939 58.1432ZM48.2303 52.8693C45.0946 55.4332 40.5985 55.8342 37.0545 53.8768C33.9961 52.1877 32.3258 49.0277 31.1406 45.8696C31.0655 45.6705 30.9932 45.4705 30.9232 45.2695C31.2189 44.365 31.4725 43.4458 31.6789 42.5165C31.6817 42.5046 31.6849 42.4923 31.6876 42.4799C34.0291 42.1631 36.1678 41.2005 37.9183 39.7768C40.3174 41.8541 42.2935 44.5174 43.7964 47.7057C44.0001 48.1383 44.5348 48.3292 44.9664 48.126C45.4054 47.9186 45.5936 47.3949 45.3867 46.9559C43.8074 43.6065 41.731 40.7921 39.2091 38.5724C39.6024 38.1504 39.9686 37.7009 40.3027 37.2243C43.0493 37.824 45.9076 38.0346 48.7091 37.7883C48.7114 37.7878 48.7141 37.7878 48.7169 37.7878C48.7265 37.797 48.7366 37.8066 48.7462 37.8162C52.964 42.008 52.9191 49.0351 48.2303 52.8693ZM56.2727 40.349C55.6598 41.5781 54.6925 42.5495 53.4936 43.1597C53.2881 41.9338 52.8908 40.7578 52.3163 39.6647C51.9066 38.8851 51.4099 38.1467 50.8349 37.4798C50.8299 37.4738 50.8249 37.4679 50.8203 37.4624C50.8249 37.461 50.8294 37.4601 50.834 37.4587C51.289 37.3553 51.723 37.1841 52.1734 37.0714C53.6946 36.5336 55.0706 35.6986 56.2352 34.6155C57.1576 36.3967 57.1887 38.5129 56.2727 40.349ZM56.8165 31.1274C53.6694 36.3834 46.7911 36.6617 41.4156 35.6533C41.3625 35.6432 41.3094 35.6327 41.2563 35.6226C41.5094 35.115 41.7264 34.5913 41.9077 34.0562C41.9095 34.0511 41.9113 34.0456 41.9131 34.0401C42.4602 32.4503 42.668 30.7328 42.5375 29.0579C42.4922 28.4733 42.4103 27.8928 42.2858 27.3197C45.0781 26.2316 48.163 25.7084 51.4689 25.7661C51.9587 25.7771 52.3547 25.388 52.3634 24.9027C52.3717 24.4175 51.9853 24.017 51.4996 24.0083C48.0188 23.9474 44.7586 24.493 41.7905 25.6274C41.2325 24.1241 40.3856 22.7339 39.2778 21.5258C39.2842 21.5121 40.0743 19.6788 40.3952 18.7504C40.4199 18.7348 40.4446 18.7193 40.4694 18.7042C43.378 16.9043 46.7668 15.4705 50.2476 16.1888C50.2618 16.1915 50.276 16.1933 50.2902 16.1952C53.9793 16.9647 56.9877 19.7763 57.9362 23.5542C58.5867 26.1456 58.1889 28.8354 56.8165 31.1274Z" fill="#AA0630"/>
</g>
<defs>
<clipPath id="clip0">
<rect width="60" height="60" fill="white"/>
</clipPath>
</defs>
</svg>
