<svg width="60" height="60" viewBox="0 0 60 60" fill="none" xmlns="http://www.w3.org/2000/svg">
<path d="M52.997 60L54.4867 59.9981C55.3929 59.9968 56.12 59.2539 56.102 58.3481L56.087 57.5958C55.9723 51.8466 53.67 46.4413 49.6038 42.3751L49.1775 41.9488C50.1342 40.532 50.7833 38.9302 51.0835 37.2223C51.1675 36.7442 50.8481 36.2886 50.3701 36.2045C49.8922 36.1204 49.4363 36.4398 49.3523 36.918C49.0309 38.7468 48.2412 40.4375 47.0492 41.854C46.0822 40.7072 45.3971 39.4072 44.9955 38.0432C44.9854 37.9462 44.9591 37.8507 44.9168 37.761C44.486 36.1307 44.4552 34.4187 44.8272 32.7747C44.9077 32.5109 44.9793 32.2441 45.0418 31.9746C45.4482 30.6692 46.1169 29.424 47.0494 28.3176C48.197 29.6829 48.9778 31.3145 49.3183 33.0686C49.4108 33.5451 49.8719 33.8559 50.3486 33.764C50.8251 33.6714 51.1364 33.2101 51.044 32.7337C50.6049 30.4719 49.5394 28.3851 47.9626 26.6988C47.4702 26.1722 46.6313 26.1704 46.1372 26.6988C45.8302 27.0271 45.5433 27.3695 45.2768 27.7243C44.9729 25.1365 43.8579 22.7194 42.054 20.7902C41.5608 20.2626 40.7217 20.2627 40.2286 20.7901C40.0933 20.9254 39.6966 21.3782 39.3683 21.8157C39.0644 19.2279 37.9494 16.8107 36.1455 14.8815C35.6522 14.354 34.8132 14.3541 34.3201 14.8814C34.1862 15.0154 33.7957 15.4594 33.4599 15.9068C33.1396 13.1746 31.9198 10.6462 29.9452 8.67161C26.901 5.62741 23.6145 2.76953 20.1771 0.177306C19.7894 -0.114951 19.2383 -0.0376095 18.9462 0.349917C18.6539 0.737444 18.7312 1.28856 19.1188 1.58082C22.266 3.95402 25.2839 6.55433 28.1002 9.31823C27.4007 10.1252 26.824 11.0022 26.3699 11.9249C23.544 9.1073 20.6076 6.39004 17.6023 3.81141C17.06 3.34596 17.039 3.32604 16.9651 3.27987C16.6004 3.05218 16.1162 3.12178 15.8312 3.4567C15.5167 3.82653 15.5615 4.38116 15.9313 4.69556C19.5395 7.76402 22.5627 10.6033 25.6621 13.7025C25.4674 14.3305 25.3242 14.9711 25.2324 15.6177C23.0701 12.5798 19.5621 10.5633 15.5857 10.4453L12.8336 7.69324C12.4904 7.35001 11.9339 7.35001 11.5908 7.69324C11.2475 8.03648 11.2475 8.59298 11.5908 8.9361L14.3428 11.6882C14.4607 15.6609 16.4738 19.1661 19.507 21.329C18.8553 21.4213 18.2161 21.5652 17.5941 21.7586C14.4515 18.6159 11.6212 15.5948 8.5932 12.034C8.2788 11.6641 7.72405 11.6193 7.35434 11.9338C6.9845 12.2482 6.93962 12.8029 7.25414 13.1726C9.96379 16.3591 12.8443 19.4856 15.8183 22.4685C14.8881 22.9284 14.0139 23.5092 13.2153 24.2026C10.4513 21.3861 7.8512 18.3681 5.47811 15.2213C5.18585 14.8338 4.63485 14.7565 4.24721 15.0486C3.85968 15.3409 3.78245 15.892 4.07459 16.2795C6.83861 19.9449 10.0423 23.5654 12.575 26.0537C14.5487 28.0248 17.0747 29.2424 19.8038 29.562C19.3627 29.8933 18.9084 30.2925 18.7786 30.4223C18.2513 30.9155 18.2511 31.7544 18.7786 32.2477C20.7079 34.0518 23.1248 35.1668 25.7126 35.4706C25.3576 35.7371 25.0153 36.0242 24.6872 36.3311C24.1599 36.8242 24.1598 37.6631 24.6872 38.1565C25.5417 38.9556 26.5012 39.6263 27.539 40.15C27.9722 40.3687 28.5009 40.1947 28.7196 39.7613C28.9384 39.328 28.7643 38.7995 28.3309 38.5807C27.6078 38.2158 26.9287 37.7672 26.306 37.2435C27.4123 36.3111 28.6573 35.6424 29.9626 35.236C30.2325 35.1733 30.4998 35.1016 30.764 35.0211C32.4078 34.6494 34.1194 34.6801 35.7494 35.1109C35.8394 35.1533 35.9351 35.1797 36.0323 35.1898C37.3961 35.5916 38.696 36.2765 39.8425 37.2434C38.7132 38.1929 37.412 38.8845 36.0213 39.2891C35.8717 39.326 35.723 39.3657 35.5753 39.4082C34.4223 39.6891 33.2152 39.7756 31.9992 39.6516C31.5164 39.6028 31.0849 39.954 31.0356 40.4368C30.9925 40.858 31.2546 41.2401 31.6427 41.3634C31.192 41.7003 30.7293 42.1065 30.5959 42.24C30.0685 42.7331 30.0684 43.572 30.5959 44.0654C34.914 48.1032 41.2793 48.3655 45.8461 45.2806L46.272 45.7065C49.6452 49.0796 51.4584 53.5694 51.3776 58.3488C51.3624 59.2567 52.0876 60 52.997 60ZM36.5823 33.5303L35.4209 32.3689C35.7087 32.1073 35.9921 31.8253 36.2664 31.5234L37.4277 32.6847C37.5612 33.1349 37.7204 33.5763 37.9046 34.0071C37.4739 33.8231 37.0324 33.6639 36.5823 33.5303ZM30.6737 27.6216L29.5123 26.4602C29.8075 26.1919 30.0892 25.9102 30.3578 25.6148L31.519 26.776C31.6525 27.2263 31.8118 27.6677 31.996 28.0985C31.5652 27.9145 31.1238 27.7552 30.6737 27.6216ZM42.491 39.4389L41.3294 38.2774C41.6248 38.0092 41.9065 37.7276 42.175 37.432L43.3363 38.5933C43.4698 39.0436 43.6291 39.485 43.8133 39.9158C43.3825 39.7317 42.9411 39.5725 42.491 39.4389ZM41.1409 22.4085C43.3311 25.0067 44.0666 28.3699 43.3651 31.4806C43.283 31.749 43.2101 32.0205 43.1466 32.2947C42.7303 33.6292 42.0505 34.8672 41.1409 35.9457C40.174 34.7993 39.4888 33.4997 39.087 32.136C39.0768 32.0381 39.0503 31.9415 39.0073 31.8507C38.5772 30.2223 38.5462 28.5125 38.9171 26.8703C38.9984 26.6038 39.0708 26.3343 39.134 26.0619C39.5405 24.7579 40.2091 23.514 41.1409 22.4085ZM35.2323 16.4998C37.4224 19.098 38.158 22.4612 37.4564 25.572C37.3744 25.8403 37.3015 26.1118 37.238 26.3861C36.8217 27.7202 36.1422 28.9582 35.2323 30.037C34.2654 28.8906 33.5802 27.5911 33.1784 26.2274C33.1682 26.1294 33.1417 26.0329 33.0987 25.942C32.6703 24.3202 32.6378 22.6177 33.0039 20.9817C33.0892 20.7036 33.1648 20.4221 33.2302 20.1376C33.6373 18.8393 34.3042 17.6009 35.2323 16.4998ZM29.324 10.5917C31.5785 13.2698 32.2476 16.7453 31.4865 19.8705C31.445 20.0151 31.4062 20.1607 31.3701 20.3069C30.9716 21.6816 30.2869 22.9836 29.324 24.1275C26.0554 20.2374 26.0393 14.5008 29.324 10.5917ZM16.1347 12.2372C21.2095 12.6777 25.2649 16.7332 25.7054 21.8079C25.2747 21.7705 24.8512 21.707 24.4367 21.6191C24.252 21.57 24.0659 21.5252 23.8785 21.4846C19.6849 20.3512 16.5208 16.6858 16.1347 12.2372ZM14.4888 25.4262C16.3815 23.8327 18.7521 22.9638 21.2571 22.9638C22.0118 22.9638 22.7543 23.0427 23.4752 23.1965C23.653 23.2437 23.8323 23.287 24.0131 23.3263C25.4803 23.7215 26.8455 24.433 28.0253 25.4263C26.8698 26.3992 25.5735 27.071 24.2377 27.4631C24.069 27.5042 23.9012 27.549 23.7346 27.5973C20.583 28.3537 17.1312 27.6509 14.4888 25.4262ZM20.3972 31.3349C21.4982 30.4068 22.7366 29.7399 24.035 29.3329C24.3195 29.2675 24.6011 29.1919 24.8792 29.1065C26.5153 28.7404 28.218 28.773 29.8399 29.2014C29.9305 29.2443 30.0268 29.2708 30.1246 29.2809C31.4882 29.6827 32.7879 30.3679 33.9344 31.3347C33.6145 31.6046 33.6199 31.5836 33.5477 31.6457C32.5496 32.4113 31.4486 32.9748 30.2992 33.3355C30.0148 33.401 29.7333 33.4766 29.4551 33.562C26.3483 34.2582 22.9915 33.5216 20.3972 31.3349ZM32.2145 43.1521C33.3183 42.2217 34.56 41.5539 35.8619 41.1471C36.1359 41.0836 36.4071 41.0106 36.6756 40.9285C38.3182 40.5575 40.0285 40.5884 41.6572 41.0187C41.7478 41.0616 41.8441 41.0881 41.9419 41.0981C43.3055 41.5 44.6052 42.1851 45.7517 43.152C45.4345 43.4196 45.4362 43.4019 45.3651 43.463C41.4739 46.4475 36.0224 46.362 32.2145 43.1521ZM47.5151 44.4631L47.2382 44.1862C47.5301 43.9209 47.8131 43.6385 48.0837 43.3407L48.361 43.6179C52.1043 47.3614 54.224 52.3378 54.3296 57.6307L54.3418 58.2405L53.1371 58.2421C53.1896 53.0328 51.1962 48.1443 47.5151 44.4631Z" fill="#AA0630"/>
</svg>
