<svg width="30" height="30" viewBox="0 0 30 30" fill="none" xmlns="http://www.w3.org/2000/svg">
  <rect x="0.5" y="0.5" width="29" height="29" rx="14.5" stroke="#AA0630" />
  <path
    d="M14.86 21.34C14.7267 21.34 14.6133 21.3 14.52 21.22C14.44 21.1267 14.4 21.0133 14.4 20.88V16.72H10.3C10.1667 16.72 10.0533 16.68 9.96 16.6C9.88 16.5067 9.84 16.3933 9.84 16.26V15.62C9.84 15.4867 9.88 15.38 9.96 15.3C10.0533 15.2067 10.1667 15.16 10.3 15.16H14.4V11.12C14.4 10.9867 14.44 10.88 14.52 10.8C14.6133 10.7067 14.7267 10.66 14.86 10.66H15.56C15.6933 10.66 15.8 10.7067 15.88 10.8C15.9733 10.88 16.02 10.9867 16.02 11.12V15.16H20.14C20.2733 15.16 20.38 15.2067 20.46 15.3C20.5533 15.38 20.6 15.4867 20.6 15.62V16.26C20.6 16.3933 20.5533 16.5067 20.46 16.6C20.38 16.68 20.2733 16.72 20.14 16.72H16.02V20.88C16.02 21.0133 15.9733 21.1267 15.88 21.22C15.8 21.3 15.6933 21.34 15.56 21.34H14.86Z"
    fill="#AA0630" />
</svg>