<?xml version="1.0" encoding="utf-8"?><svg viewBox="0 0 502.66 502.66" xmlns="http://www.w3.org/2000/svg" xmlns:xlink="http://www.w3.org/1999/xlink"><style>:root>svg{display:none}:root>svg:target{display:block}</style><svg viewBox="0 0 24 24" id="cart" xmlns="http://www.w3.org/2000/svg"><path d="M7 18c-1.1 0-1.99.9-1.99 2S5.9 22 7 22s2-.9 2-2-.9-2-2-2zM2 2a1 1 0 000 2h.225c.473 0 .904.273 1.107.7l2.07 4.363a5.463 5.463 0 01-.152 4.977c-.16.28-.25.61-.25.96 0 1.1.9 2 2 2h11a1 1 0 100-2H7.42a.247.247 0 01-.243-.19.25.25 0 01.008-.118.49.49 0 01.046-.118l.132-.24A2.584 2.584 0 019.625 13h5.925c.75 0 1.41-.41 1.75-1.03l3.58-6.49A1.003 1.003 0 0020 4H6.315A1.74 1.74 0 014.74 3c-.287-.61-.9-1-1.575-1H2zm15 16c-1.1 0-1.99.9-1.99 2s.89 2 1.99 2 2-.9 2-2-.9-2-2-2z"/></svg><svg viewBox="0 0 502.664 502.664" id="icon" xmlns="http://www.w3.org/2000/svg"><g fill="#010002"><path d="M153.821 358.226L0 274.337v-46.463l153.821-83.414v54.574L46.636 250.523l107.185 53.431v54.272zM180.094 387.584L282.103 115.08h32.227L212.084 387.584h-31.99zM348.843 358.226v-54.272l107.164-52.999-107.164-52.59v-53.927l153.821 83.522v46.183l-153.821 84.083z"/></g></svg><svg fill="none" viewBox="0 0 40 40" id="insta" xmlns="http://www.w3.org/2000/svg"><circle cx="20" cy="20" r="20"/><path d="M26.58 12H14.42C13.045 12 12 13.046 12 14.42v12.16c0 1.374 1.046 2.42 2.42 2.42h12.16c1.374 0 2.42-1.046 2.42-2.42V14.42c0-1.374-1.046-2.42-2.42-2.42zM20.5 25.6c2.811 0 5.1-2.223 5.1-4.904 0-.458-.065-.98-.196-1.373h1.438v6.93a.655.655 0 01-.653.655H14.812a.655.655 0 01-.654-.654v-6.996h1.504a4.98 4.98 0 00-.197 1.373C15.4 23.377 17.69 25.6 20.5 25.6zm0-1.962c-1.83 0-3.27-1.438-3.27-3.203 0-1.766 1.44-3.204 3.27-3.204s3.27 1.438 3.27 3.204c0 1.83-1.44 3.204-3.27 3.204zm6.277-6.996c0 .393-.327.72-.72.72h-1.83a.726.726 0 01-.72-.72v-1.765c0-.392.328-.72.72-.72h1.83c.393 0 .72.328.72.72v1.765z" fill="#fff"/></svg><svg viewBox="0 0 24 24" id="phone" xmlns="http://www.w3.org/2000/svg"><path d="M20 15.5c-1.25 0-2.45-.2-3.57-.57a1.02 1.02 0 00-1.02.24l-2.2 2.2a15.074 15.074 0 01-6.59-6.58l2.2-2.21c.28-.27.36-.66.25-1.01A11.36 11.36 0 018.5 4c0-.55-.45-1-1-1H4c-.55 0-1 .45-1 1 0 9.39 7.61 17 17 17 .55 0 1-.45 1-1v-3.5c0-.55-.45-1-1-1z"/></svg><svg fill="none" viewBox="0 0 30 30" id="plus" xmlns="http://www.w3.org/2000/svg"><rect x=".5" y=".5" width="29" height="29" rx="14.5" stroke="#AA0630"/><path d="M14.86 21.34a.505.505 0 01-.34-.12.505.505 0 01-.12-.34v-4.16h-4.1a.505.505 0 01-.34-.12.505.505 0 01-.12-.34v-.64c0-.133.04-.24.12-.32a.463.463 0 01.34-.14h4.1v-4.04c0-.133.04-.24.12-.32a.463.463 0 01.34-.14h.7a.4.4 0 01.32.14.4.4 0 01.14.32v4.04h4.12a.4.4 0 01.32.14.4.4 0 01.14.32v.64a.463.463 0 01-.14.34.433.433 0 01-.32.12h-4.12v4.16a.463.463 0 01-.14.34.433.433 0 01-.32.12h-.7z" fill="#AA0630"/></svg><svg fill="none" viewBox="0 0 40 40" id="vk" xmlns="http://www.w3.org/2000/svg"><circle cx="20" cy="20" r="20"/><path d="M29.806 25.115c0-.083-.083-.083-.083-.166-.332-.664-1.08-1.494-2.076-2.407-.498-.416-.747-.748-.913-.914-.249-.332-.249-.58-.166-.913.083-.249.415-.664.996-1.411.332-.415.498-.664.748-.914 1.245-1.66 1.826-2.74 1.66-3.238l-.083-.082c-.083-.084-.166-.167-.332-.167-.166-.083-.415-.083-.664 0h-3.736l-.083.083c-.083.083-.083.083-.083.166-.332.914-.747 1.661-1.163 2.491-.249.415-.498.83-.747 1.162-.249.333-.415.582-.581.748-.166.166-.332.249-.415.415-.083.083-.25.166-.25.083-.082 0-.165 0-.165-.083l-.25-.25c-.082-.082-.082-.248-.165-.414v-.415-.499-.498-.913-.747-.581-.498c0-.084-.083-.25-.083-.333l-.25-.249c-.082-.083-.248-.083-.332-.166a7.449 7.449 0 00-1.494-.166c-1.328 0-2.242.083-2.574.25-.166.082-.332.165-.415.331-.166.166-.166.25-.083.25.415.082.747.248.913.498l.083.166c.084.083.084.249.166.498.084.249.084.498.084.83v1.328c0 .415-.084.665-.084.914s-.082.415-.166.498c-.082.166-.082.249-.166.249 0 0 0 .083-.083.083s-.166.083-.332.083c-.083 0-.249-.083-.332-.166a1 1 0 01-.415-.415c-.166-.166-.332-.415-.498-.747-.166-.333-.415-.665-.581-1.163l-.166-.332c-.083-.166-.25-.498-.415-.913-.166-.415-.332-.747-.498-1.162-.084-.167-.167-.25-.25-.333h-.083s-.083-.083-.166-.083-.166-.083-.249-.083H9.797c-.332 0-.498.083-.58.166l-.084.083v.166c0 .084 0 .167.083.333.415.996.914 1.992 1.412 2.988.498.914.996 1.744 1.328 2.325.415.581.747 1.162 1.162 1.66.415.499.665.83.748.997l.332.332.249.249c.166.166.415.415.747.664.332.25.747.498 1.162.747.415.25.914.415 1.412.581.58.167 1.079.25 1.577.167h1.245a.753.753 0 00.582-.25l.083-.082c0-.084.083-.084.083-.167v-.332c0-.332 0-.58.083-.83.083-.249.083-.415.166-.581.083-.166.166-.25.249-.332l.166-.166h.083c.166-.083.415 0 .581.166.25.166.498.415.664.664.166.25.415.498.747.83.332.332.582.581.748.665l.249.166c.166.082.332.166.58.249.25.083.416.083.582.083l2.823-.083c.249 0 .498-.083.664-.166.166-.083.249-.166.249-.333v-.332c-.166-.166-.166-.249-.166-.332z" fill="#fff"/></svg><svg fill="none" viewBox="0 0 40 40" id="whatsapp" xmlns="http://www.w3.org/2000/svg"><circle cx="20" cy="20" r="20"/><path d="M27.927 12.063A10.428 10.428 0 0020.537 9c-5.78 0-10.464 4.667-10.464 10.427 0 1.823.512 3.646 1.39 5.177L10 30l5.561-1.458c1.537.802 3.22 1.24 4.976 1.24 5.78 0 10.463-4.667 10.463-10.428-.073-2.698-1.098-5.323-3.073-7.291zm-2.342 11.083c-.22.583-1.244 1.166-1.756 1.24a4.104 4.104 0 01-1.61-.073c-.365-.146-.878-.292-1.463-.584-2.634-1.094-4.317-3.719-4.463-3.937-.147-.146-1.098-1.386-1.098-2.698 0-1.313.659-1.896.878-2.188.22-.291.512-.291.732-.291h.512c.146 0 .366-.073.585.437.22.51.732 1.823.805 1.896a.463.463 0 010 .437c-.073.146-.146.292-.292.438-.147.146-.293.364-.366.437-.147.146-.293.292-.147.51.147.293.659 1.095 1.464 1.824 1.024.875 1.83 1.166 2.122 1.312.293.146.439.073.585-.073.146-.145.659-.729.805-1.02.146-.292.366-.22.585-.146.22.073 1.537.729 1.756.875.293.145.44.218.513.291.073.22.073.73-.147 1.313z" fill="#fff"/></svg><svg fill="none" viewBox="0 0 40 40" id="youtube" xmlns="http://www.w3.org/2000/svg"><circle cx="20" cy="20" r="20"/><path d="M28.713 18.913c0-.388-.065-.84-.065-1.357a88.402 88.402 0 00-.194-1.487c-.129-.517-.323-.905-.71-1.229-.324-.323-.776-.517-1.229-.581-1.487-.194-3.685-.259-6.658-.259-2.974 0-5.237.065-6.659.259-.453.064-.905.258-1.228.581a2.58 2.58 0 00-.711 1.229c-.13.452-.194.905-.194 1.487-.065.517-.065.97-.065 1.357v2.974c0 .388.065.84.065 1.357.064.518.129 1.035.194 1.487.129.517.323.905.71 1.229.324.323.777.517 1.229.581 1.487.194 3.685.259 6.659.259 2.973 0 5.236-.065 6.658-.259.453-.064.905-.258 1.228-.581.324-.324.582-.712.712-1.229.129-.452.194-.905.194-1.487.064-.517.064-.97.064-1.357V20.4v-1.487zm-5.43 2.004l-5.107 3.168a.494.494 0 01-.323.13c-.13 0-.194 0-.324-.066a.679.679 0 01-.323-.581v-6.4c0-.259.13-.453.323-.582a.587.587 0 01.647 0l5.107 3.168c.194.129.323.323.323.517s-.13.517-.323.646z" fill="#fff"/></svg></svg>